Coordinates
version=1
nRows=26
nColumns=27
inDegrees=yes

Units are S.I. units (second, meters, Newtons, ...)
If the header above contains a line with 'inDegrees', this indicates whether rotational values are in degrees (yes) or radians (no).

endheader
time	pelvis_rotation	pelvis_tilt	pelvis_list	pelvis_tx	pelvis_ty	pelvis_tz	hip_flexion_r	hip_adduction_r	hip_rotation_r	knee_angle_r	knee_rotation_r	knee_adduction_r	knee_angle_r_beta	ankle_angle_r	subtalar_angle_r	mtp_angle_r	hip_flexion_l	hip_adduction_l	hip_rotation_l	knee_angle_l	knee_rotation_l	knee_adduction_l	knee_angle_l_beta	ankle_angle_l	subtalar_angle_l	mtp_angle_l
      5.38000000	     11.01047644	    -32.09590428	      3.71042896	     -0.03916829	      0.63043902	     -1.14908945	     95.32937770	    -45.09915634	      2.96135131	     81.31066325	      0.00000000	      9.57836905	      1.41913879	     11.19416979	      0.00000000	      0.00000000	     98.14677755	    -23.44144545	      6.41322006	     75.31167857	      0.00000000	     -9.77042670	      1.31443676	      5.98243880	      0.00000000	      0.00000000
      5.38500000	     11.53536417	    -32.03717510	      3.73050856	     -0.03858499	      0.63254870	     -1.14956521	     94.58227999	    -45.79451467	      2.09330131	     80.91517479	      0.00000000	      9.77629174	      1.41223621	     11.12826469	      0.00000000	      0.00000000	     97.87654559	    -22.87927485	      6.46889897	     74.96687781	      0.00000000	     -9.87628049	      1.30841885	      5.92297916	      0.00000000	      0.00000000
      5.39000000	     11.47087786	    -32.00169434	      3.82814592	     -0.03833963	      0.63466903	     -1.14985878	     94.25683879	    -45.71907297	      1.93597218	     80.50784902	      0.00000000	      9.77551638	      1.40512704	     10.99984660	      0.00000000	      0.00000000	     97.42097362	    -22.94697579	      6.12809181	     74.58471839	      0.00000000	     -9.87607162	      1.30174891	      5.86597954	      0.00000000	      0.00000000
      5.39500000	     11.82275339	    -31.78655080	      3.37867475	     -0.03743651	      0.63707039	     -1.15007279	     92.67867360	    -46.17289344	      0.41003388	     79.96925938	      0.00000000	      9.77933141	      1.39572688	     10.97193667	      0.00000000	      0.00000000	     97.15869604	    -22.50636920	      6.64821391	     74.24065440	      0.00000000	     -9.87452545	      1.29574386	      5.79761819	      0.00000000	      0.00000000
      5.40000000	     11.44058063	    -31.86762559	      3.93954623	     -0.03763937	      0.63878566	     -1.15041429	     93.39252756	    -45.69568342	      1.42123180	     79.70765401	      0.00000000	      9.77696473	      1.39116100	     10.77627879	      0.00000000	      0.00000000	     96.52734188	    -22.96979651	      5.60969352	     73.85356825	      0.00000000	     -9.87493704	      1.28898793	      5.76840873	      0.00000000	      0.00000000
      5.40500000	     11.43337236	    -31.85930051	      4.03921250	     -0.03735548	      0.64072040	     -1.15077101	     93.09872071	    -45.68892759	      1.25141961	     79.33291786	      0.00000000	      9.77665551	      1.38462062	     10.68667697	      0.00000000	      0.00000000	     96.14956213	    -22.96998373	      5.31480793	     73.51848337	      0.00000000	     -9.87390849	      1.28313960	      5.71340958	      0.00000000	      0.00000000
      5.41000000	     10.86512194	    -31.80699972	      4.09050411	     -0.03723970	      0.64270982	     -1.15086419	     93.00088901	    -44.99581749	      1.57532445	     78.94288749	      0.00000000	      9.58018565	      1.37781331	     10.51328875	      0.00000000	      0.00000000	     95.56943450	    -23.55471386	      4.76039900	     73.15633734	      0.00000000	     -9.76498868	      1.27681896	      5.65190206	      0.00000000	      0.00000000
      5.41500000	     11.39439425	    -31.73243588	      4.21787110	     -0.03657265	      0.64455244	     -1.15146217	     92.38299833	    -45.66281057	      0.91309470	     78.57790960	      0.00000000	      9.77884443	      1.37144324	     10.45443126	      0.00000000	      0.00000000	     95.26118763	    -22.99733508	      4.72921244	     72.84083734	      0.00000000	     -9.87291443	      1.27131244	      5.63496436	      0.00000000	      0.00000000
      5.42000000	     10.77345041	    -31.68501450	      4.22524014	     -0.03646134	      0.64655345	     -1.15149210	     92.25769377	    -44.89985935	      1.22330950	     78.17770759	      0.00000000	      9.58097811	      1.36445840	     10.29775438	      0.00000000	      0.00000000	     94.69062506	    -23.62270710	      4.19049941	     72.46680534	      0.00000000	     -9.76333381	      1.26478435	      5.55068935	      0.00000000	      0.00000000
      5.42500000	     11.38685764	    -31.60682995	      4.35911726	     -0.03566675	      0.64834066	     -1.15211234	     91.59462189	    -45.66224409	      0.48503878	     77.82707273	      0.00000000	      9.78040320	      1.35833867	     10.23707835	      0.00000000	      0.00000000	     94.40801123	    -22.99373105	      4.19871395	     72.16370502	      0.00000000	     -9.87225843	      1.25949425	      5.55328654	      0.00000000	      0.00000000
      5.43000000	     11.39425340	    -31.52016902	      4.40809578	     -0.03513690	      0.65019441	     -1.15243987	     91.14505886	    -45.68224430	      0.23079659	     77.45634137	      0.00000000	      9.78154054	      1.35186818	     10.13998781	      0.00000000	      0.00000000	     93.97658569	    -22.97968790	      3.96615973	     71.83777481	      0.00000000	     -9.87180207	      1.25380570	      5.51186243	      0.00000000	      0.00000000
      5.43500000	     11.34891599	    -31.46068236	      4.51124624	     -0.03467761	      0.65196992	     -1.15278677	     90.84286515	    -45.63608648	      0.13568394	     77.10449030	      0.00000000	      9.78181714	      1.34572722	     10.01900422	      0.00000000	      0.00000000	     93.53738278	    -23.01800642	      3.64973000	     71.51988157	      0.00000000	     -9.87163750	      1.24825741	      5.47979066	      0.00000000	      0.00000000
      5.44000000	     11.23063607	    -31.21441463	      3.80588996	     -0.03370225	      0.65437788	     -1.15270590	     89.14886241	    -45.43991401	     -1.29437922	     76.49191532	      0.00000000	      9.59389105	      1.33503577	      9.97440455	      0.00000000	      0.00000000	     93.24874260	    -23.08027167	      4.22973721	     71.17856580	      0.00000000	     -9.75975848	      1.24230033	      5.37900484	      0.00000000	      0.00000000
      5.44500000	     11.35605862	    -31.29823315	      4.67275726	     -0.03357803	      0.65550092	     -1.15349886	     90.06967349	    -45.66273941	     -0.22017535	     76.39543213	      0.00000000	      9.78437462	      1.33335182	      9.81521424	      0.00000000	      0.00000000	     92.66528020	    -22.98408397	      3.13000744	     70.89016711	      0.00000000	     -9.87094888	      1.23726682	      5.41619490	      0.00000000	      0.00000000
      5.45000000	     10.75825129	    -31.27928372	      4.85664597	     -0.03344936	      0.65722640	     -1.15364983	     90.24997183	    -44.92286941	      0.45772995	     76.06025621	      0.00000000	      9.59261486	      1.32750190	      9.66740348	      0.00000000	      0.00000000	     92.04935885	    -23.56764735	      2.40092776	     70.55112222	      0.00000000	     -9.75909962	      1.23134937	      5.31366502	      0.00000000	      0.00000000
      5.45500000	     11.30394469	    -31.14198133	      4.81708535	     -0.03239111	      0.65898723	     -1.15419657	     89.31762969	    -45.62999882	     -0.54985973	     75.69311566	      0.00000000	      9.78610304	      1.32109409	      9.59339675	      0.00000000	      0.00000000	     91.79177765	    -23.00257640	      2.60388551	     70.27432529	      0.00000000	     -9.87042453	      1.22651836	      5.36482456	      0.00000000	      0.00000000
      5.46000000	     10.72858909	    -31.11722317	      4.88409347	     -0.03216673	      0.66070778	     -1.15436189	     89.33573268	    -44.94440964	     -0.09178131	     75.33974353	      0.00000000	      9.59426199	      1.31492658	      9.41437314	      0.00000000	      0.00000000	     91.24071137	    -23.53679532	      2.04334516	     69.95510703	      0.00000000	     -9.75730492	      1.22094695	      5.29655445	      0.00000000	      0.00000000
      5.46500000	     11.28269685	    -30.98476293	      4.97466662	     -0.03109704	      0.66241748	     -1.15492202	     88.56367188	    -45.63091131	     -0.87432728	     75.00194898	      0.00000000	      9.78779444	      1.30903096	      9.39438960	      0.00000000	      0.00000000	     90.92329675	    -22.97701651	      2.09780443	     69.66586579	      0.00000000	     -9.86969934	      1.21589873	      5.31382374	      0.00000000	      0.00000000
      5.47000000	     11.07149182	    -30.79114200	      4.34109564	     -0.03011265	      0.66462131	     -1.15488759	     87.11242742	    -45.30847877	     -2.04412289	     74.42324265	      0.00000000	      9.60199460	      1.29893062	      9.31936036	      0.00000000	      0.00000000	     90.65395767	    -23.15154127	      2.55888521	     69.37681367	      0.00000000	     -9.75605295	      1.21085382	      5.23431270	      0.00000000	      0.00000000
      5.47500000	     11.23853908	    -30.81484627	      5.11637065	     -0.02967968	      0.66584022	     -1.15567084	     87.77873256	    -45.62135252	     -1.21872167	     74.30467409	      0.00000000	      9.78916104	      1.29686121	      9.19522932	      0.00000000	      0.00000000	     90.03504606	    -22.96053678	      1.60193405	     69.06425658	      0.00000000	     -9.86896361	      1.20539867	      5.28786364	      0.00000000	      0.00000000
      5.48000000	     11.10116504	    -30.63615421	      4.68757519	     -0.02875666	      0.66793339	     -1.15575439	     86.59166485	    -45.38319955	     -2.09124938	     73.78310661	      0.00000000	      9.60604881	      1.28775814	      9.13795921	      0.00000000	      0.00000000	     89.68642529	    -23.04442204	      1.89273702	     68.74765889	      0.00000000	     -9.75410215	      1.19987300	      5.22864405	      0.00000000	      0.00000000
      5.48500000	     11.44893927	    -30.55820456	      4.91203749	     -0.02782371	      0.66946486	     -1.15635330	     86.20446725	    -45.85646571	     -2.45244538	     73.50155811	      0.00000000	      9.79231483	      1.28284419	      9.06900221	      0.00000000	      0.00000000	     89.30752773	    -22.68104801	      1.69076538	     68.47400682	      0.00000000	     -9.86758607	      1.19509687	      5.25240587	      0.00000000	      0.00000000
      5.49000000	     11.11215949	    -30.59672933	      5.35193265	     -0.02749887	      0.67086667	     -1.15680599	     86.72030937	    -45.53952973	     -1.60908923	     73.28021566	      0.00000000	      9.79071112	      1.27898104	      8.90893326	      0.00000000	      0.00000000	     88.71593493	    -22.96065393	      0.83746234	     68.17510830	      0.00000000	     -9.86776145	      1.18988011	      5.25473808	      0.00000000	      0.00000000
      5.49500000	     10.84164450	    -30.47386918	      5.01914054	     -0.02668090	      0.67289825	     -1.15689657	     85.81976735	    -45.15348507	     -2.16407354	     72.77793419	      0.00000000	      9.60629396	      1.27021457	      8.84235225	      0.00000000	      0.00000000	     88.32381599	    -23.16089879	      0.94638445	     67.84667932	      0.00000000	     -9.75090294	      1.18414794	      5.19534704	      0.00000000	      0.00000000
      5.50000000	     11.21204890	    -30.37007787	      5.01055221	     -0.02555346	      0.67446838	     -1.15739059	     85.06898025	    -45.65472042	     -2.98836351	     72.46068052	      0.00000000	      9.79247474	      1.26467745	      8.75944210	      0.00000000	      0.00000000	     88.07328568	    -22.79401004	      1.03589539	     67.62182591	      0.00000000	     -9.86657829	      1.18022351	      5.20387922	      0.00000000	      0.00000000
      5.50500000	     11.12006780	    -30.34763021	      5.24839432	     -0.02492611	      0.67597931	     -1.15784445	     85.05017849	    -45.59435058	     -2.77222093	     72.17244430	      0.00000000	      9.79308436	      1.25964678	      8.64012007	      0.00000000	      0.00000000	     87.60157619	    -22.82540835	      0.58443087	     67.33392150	      0.00000000	     -9.86576617	      1.17519863	      5.21478804	      0.00000000	      0.00000000
